name processed_emg_signals
nRows=100
nColumns=7
 
endheader
time	LGLTMED	LRF	LADDLONG	LST	LTA	LGM
1.285	0.1142018069494095	0.0729739031392966	0.6241585733103898	0.0840180384463454	0.4770670909438127	0.0281859723852117
1.286	0.1144294249329986	0.0729111723608914	0.6271295814367289	0.0839577488487011	0.4779966944032013	0.0288455241290421
1.287	0.1146583499544923	0.0728529429386377	0.6300450166518979	0.0838991398317243	0.4788012246024407	0.029510777757868
1.288	0.1148882941573998	0.0727989813804871	0.6329027200644518	0.0838416802603671	0.4794800893047	0.0301818306806876
1.289	0.1151189769860076	0.0727490503582969	0.6357005270608067	0.0837848510363378	0.4800327952977208	0.0308587913452613
1.29	0.1153501250629426	0.0727029094243476	0.63843626982183	0.0837281454782868	0.4804589493222402	0.0315417783127622
1.291	0.11558147205825	0.0726603157279978	0.6411077798666464	0.0836710696716524	0.48075825889915	0.0322309193345526
1.292	0.1158127585510088	0.0726210247307307	0.6437128906267845	0.0836131427876443	0.4809305330513629	0.0329263504334825
1.293	0.1160437318843084	0.0725847909178983	0.6462494400537422	0.083553897371139	0.4809756829155432	0.0336282149921432
1.294	0.1162741460144492	0.0725513685054594	0.6487152732624296	0.0834928795972661	0.4808937222386096	0.0343366628505334
1.295	0.1165037613548252	0.0725205121400638	0.6511082452118873	0.0834296494967307	0.4806847677539388	0.0350518494155866
1.296	0.1167323446153788	0.0724919775905479	0.6534262234234629	0.0833637811499553	0.480349039432689	0.0357739347849761
1.297	0.1169596686380688	0.0724655224289548	0.6556670907351057	0.0832948628500711	0.4798868606063088	0.0365030828875496
1.298	0.1171855122294174	0.0724409066988775	0.6578287480893179	0.0832224972346693	0.4792986579572298	0.0372394606426601
1.299	0.1174096599906471	0.0724178935691168	0.6599091173512447	0.0831463013861154	0.4785849613761345	0.0379832371406194
1.3	0.1176319021463097	0.0723962499705234	0.6619061441529089	0.0830659069000928	0.4777464036859711	0.0387345828464176
1.301	0.117852034371871	0.0723757472142096	0.663817800759101	0.0829809599222769	0.4767837202347275	0.0394936688288107
1.302	0.1180698576210205	0.0723561615897007	0.6656420889503435	0.0828911211531511	0.4756977483602783	0.0402606660168413
1.303	0.1182851779532735	0.0723372749416612	0.667377042917966	0.0827960658212899	0.4744894267310182	0.0410357444857129
1.304	0.118497806362688	0.0723188752243125	0.6690207321661621	0.0826954836259053	0.473159794565643	0.0418190727739047
1.305	0.1187075586084917	0.0723007570325905	0.6705712644154551	0.0825890786495667	0.4717099907345632	0.0426108172332085
1.306	0.11891425504833	0.072282722109222	0.6720267885018961	0.0824765692425259	0.4701412527446609	0.0434111414132982
1.307	0.1191177204746972	0.0722645798270443	0.6733854972661977	0.0823576878801752	0.4684549156085337	0.0442202054822687
1.308	0.1193177839550049	0.0722461476457504	0.6746456304268845	0.0822321809954385	0.4666524105989135	0.0450381656844661
1.309	0.1195142786752947	0.0722272515423914	0.6758054774315035	0.0820998087880677	0.4647352638886894	0.045865173836783
1.31	0.1197070417877574	0.072207726414966	0.6768633802801305	0.0819603450128939	0.4627050950763431	0.0467013768645483
1.311	0.1198959142619725	0.072187416458366	0.6778177363160208	0.0818135767492098	0.4605636155958673	0.0475469163779629
1.312	0.1200807407398376	0.0721661755120608	0.678667000978896	0.0816593041536208	0.4583126270093264	0.0484019282900127
1.313	0.1202613693942295	0.0721438673788861	0.6794096905167832	0.0814973401987833	0.4559540191796169	0.0492665424766064
1.314	0.1204376517913316	0.0721203661143041	0.6800443846524091	0.0813275104005548	0.4534897683209898	0.0501408824795745
1.315	0.1206094427564602	0.0720955562854852	0.6805697291995513	0.0811496525360349	0.4509219349253621	0.0510250652530397
1.316	0.1207766002430371	0.0720693331995223	0.6809844386237972	0.0809636163550546	0.448252661563144	0.0519192009535421
1.317	0.1209389852044822	0.072041603100032	0.6812872985412682	0.0807692632874804	0.4454841705579532	0.0528233927741472
1.318	0.1210964614686173	0.0720122833313388	0.6814771681485386	0.0805664661488692	0.4426187615356211	0.0537377368226979
1.319	0.1212488956144516	0.0719813024695954	0.6815529825771792	0.0803551088467283	0.4396588088490292	0.0546623220442358
1.32	0.1213961568512219	0.0719486004200405	0.6815137551671173	0.0801350860896665	0.436606758881732	0.0555972301874781
1.321	0.1215381168995111	0.0719141284799655	0.6813585796534537	0.0799063031014553	0.4334651272342111	0.0565425358151051
1.322	0.1216746498743814	0.0718778493670021	0.6810866322622734	0.079668675341815	0.4302364957969567	0.0574983063574647
1.323	0.1218056321704343	0.071839737212653	0.6806971737119805	0.0794221282355341	0.4269235097144171	0.0584646022090987
1.324	0.121930942348909	0.0717997775212205	0.6801895511179815	0.0791665969112004	0.4235288742434783	0.0594414768674154
1.325	0.1220504610268121	0.0717579670946938	0.679563199799696	0.078902025950692	0.4200553515099591	0.0604289771126378
1.326	0.1221640707684304	0.0717143139243468	0.6788176449895187	0.0786283691502528	0.4165057571664572	0.0614271432280657
1.327	0.1222716559793539	0.0716688370501806	0.6779525034436981	0.0783455892938966	0.4128829569551174	0.0624360092595608
1.328	0.1223731028032501	0.0716215663893451	0.6769674849548549	0.078053657939798	0.4091898631792093	0.0634556033130292
1.329	0.1224682990219712	0.0715725425348474	0.6758623937649881	0.0777525552203037	0.4054294310884948	0.0644859478885818
1.33	0.1225571339596741	0.0715218165257792	0.674637129876897	0.0774422696563007	0.4016046551849306	0.065527060249956
1.331	0.1226394983922068	0.0714694495904828	0.6732916902616194	0.0771227979866961	0.3977185654568643	0.0665789528277081
1.332	0.1227152844627772	0.0714155128640515	0.6718261699593148	0.0767941450138149	0.3937742235512825	0.0676416336545779
1.333	0.122784385605501	0.0713600870816916	0.6702407630714964	0.0764563234653961	0.3897747188945255	0.0687151068313352
1.334	0.1228466964780681	0.0713032622495454	0.6685357636428021	0.0761093538738738	0.3857231647722893	0.0697993730213135
1.335	0.1229021129052368	0.0712451372942887	0.6667115664308594	0.0757532644735679	0.3816226943799001	0.0708944299716917
1.336	0.1229505318346946	0.0711858196929078	0.6647686675624627	0.0753880911163506	0.3774764568537466	0.0720002730595281
1.337	0.1229918513068229	0.0711254250836575	0.6627076650732908	0.0750138772066021	0.3732876132948993	0.0731168958605164
1.338	0.1230259704396254	0.0710640768594364	0.6605292593267775	0.0746306736561433	0.369059332795828	0.0742442907383086
1.339	0.1230527894298847	0.0710019057446838	0.6582342533060785	0.074238538860155	0.3647947884811472	0.0753824494522194
1.34	0.1230722095712811	0.0709390493570594	0.6558235527715016	0.0738375386948152	0.360497153573336	0.0765313637808839
1.341	0.1230841332897789	0.0708756517552816	0.6532981662748372	0.0734277465375374	0.3561695974940289	0.0776910261592919
1.342	0.1230884641963837	0.0708118629747016	0.6506592050212383	0.0730092433103952	0.351815282011326	0.0788614303264201
1.343	0.1230851071569393	0.0707478385522912	0.6479078825690351	0.0725821175472491	0.3474373574430038	0.0800425719805195
1.344	0.1230739683786593	0.0706837390427082	0.6450455143577332	0.0721464654849359	0.3430389589251023	0.0812344494389863
1.345	0.1230549555128689	0.0706197295272034	0.6420735170548227	0.0717023911788569	0.3386232027546	0.0824370642996509
1.346	0.1230279777732615	0.07055597911702	0.6389934077125654	0.071250006643119	0.3341931828142594	0.0836504221002444
1.347	0.1229929460688995	0.0704926604529594	0.6358068027268504	0.0707894320154723	0.3297519670867841	0.0848745329727574
1.348	0.1229497731510186	0.070429949202419	0.6325154165918617	0.0703207957471425	0.3253025942647985	0.0861094122893877
1.349	0.122898373772463	0.0703680235553407	0.6291210604462751	0.0698442348176466	0.3208480704624476	0.0873550812967674
1.35	0.1228386648586589	0.0703070637202677	0.6256256404094849	0.0693598949745197	0.3163913660337656	0.0886115677351977
1.351	0.1227705656888646	0.0702472514215189	0.622031155708953	0.0688679309976705	0.3119354125021464	0.0898789064395658
1.352	0.1226939980865654	0.0701887693988122	0.6183396966024707	0.0683685069879039	0.3074830996044168	0.0911571399186881
1.353	0.1226088866175994	0.0701318009103567	0.6145534421009824	0.0678617966790258	0.3030372724520417	0.0924463189098051
1.354	0.1225151587947942	0.0700765292407581	0.6106746574991158	0.0673479837725886	0.2986007288111548	0.0937465029050907
1.355	0.1224127452877595	0.0700231372151532	0.6067056917216552	0.0668272622944716	0.2941762165023237	0.0950577606472067
1.356	0.1223015801368549	0.0699718067208756	0.6026489744945607	0.0662998369720808	0.289766430920383	0.0963801705912323
1.357	0.1221816009704511	0.0699227182382684	0.598507013348998	0.0657659236310992	0.2853740126742848	0.0977138213307075
1.358	0.1220527492248537	0.0698760503819354	0.5942823904664037	0.0652257496104705	0.2810015453468724	0.0990588119860737
1.359	0.1219149703663931	0.0698319794537755	0.5899777593728428	0.0646795541942152	0.2766515533746306	0.1004152525543132
1.36	0.1217682141148929	0.0697906790089859	0.5855958414917177	0.0641275890586547	0.2723265000476734	0.1017832642191479
1.361	0.1216124346676638	0.0697523194360292	0.5811394225652249	0.0635701187334544	0.2680287856304232	0.1031629796215752
1.362	0.1214475909227033	0.0697170675516801	0.5766113489563045	0.0630074210750581	0.2637607456033879	0.1045545430908557
1.363	0.1212736466996756	0.0696850862120802	0.5720145238435949	0.0624397877510684	0.2595246490260761	0.1059581108361112
1.364	0.1210905709572967	0.0696565339409108	0.5673519033214693	0.0618675247340792	0.2553226970206761	0.1073738510987339
1.365	0.1208983380056832	0.0696315645755718	0.5626264924162007	0.0612909528035311	0.2511570213753161	0.1088019442656548
1.366	0.1206969277124559	0.069610326932256	0.5578413410276365	0.0607104080540719	0.2470296832651343	0.110242582943545
1.367	0.1204863257014253	0.0695929644906717	0.5529995398044139	0.0601262424088678	0.2429426720887886	0.1116959719938765
1.368	0.1202665235427765	0.069579615099033	0.5481042159605167	0.0595388241361395	0.2388979044177814	0.1131623285288444
1.369	0.1200375189337417	0.0695704106997623	0.5431585290415014	0.0589485383671954	0.2348972230559571	0.1146418818679711
1.37	0.119799315868878	0.0695654770763961	0.5381656666499167	0.0583557876140493	0.2309423962065417	0.1161348734551604
1.371	0.119551924799007	0.0695649336220496	0.5331288401408469	0.0577609922846239	0.2270351167442157	0.1176415567357819
1.372	0.1192953627778958	0.0695688931297554	0.5280512802990116	0.0571645911936457	0.2231770015896069	0.1191621969931917
1.373	0.1190296535957551	0.0695774616048409	0.5229362330092696	0.0565670420671434	0.2193695911836584	0.1206970711439927
1.374	0.1187548278988612	0.0695907380993687	0.5177869549318445	0.055968822038682	0.2156143490593207	0.1222464674913125
1.375	0.1184709232950367	0.0696088145685597	0.5126067091931031	0.0553704281352852	0.2119126615083877	0.1238106854355073
1.3760000000000001	0.1181779844449649	0.069631775748926	0.507398761102081	0.0547723777512043	0.2082658373415964	0.1253900351419634
1.377	0.1178760631398806	0.0696596990578358	0.502166373902189	0.0541752091075249	0.2046751077406333	0.1269848371660163
1.3780000000000001	0.1175652183662696	0.0696926545140311	0.4969128045670336	0.0535794816957553	0.2011416262008944	0.1285954220353401
1.379	0.1172455163583456	0.0697307046787953	0.4916412996492715	0.0529857767035538	0.197666468564265	0.1302221297904931
1.3800000000000001	0.1169170306391703	0.0697739046171804	0.4863550911916255	0.0523946974207326	0.1942506331412874	0.131865309484494
1.381	0.1165798420508252	0.0698223018788767	0.4810573927096561	0.0518068696239081	0.1908950409223116	0.1335253186424875
1.3820000000000001	0.1162340387741244	0.0698759364980949	0.4757513952561765	0.0512229419382356	0.1876005358771915	0.1352025226826606
1.383	0.1158797163378936	0.0699348410118284	0.4704402635774435	0.050643586174724	0.1843678853432843	0.1368972942997605
1.3840000000000001	0.1155169776176149	0.0699990404958203	0.4651271323707729	0.0500694976419512	0.1811977805013925	0.1386100128127528
